# This file uses centimeters as units for non-parametric coordinates.

g default
v -6.467486 3.062726 4.926444
v -7.032612 3.062726 4.797458
v -7.485809 3.062726 5.158870
v -7.485809 3.062726 5.738530
v -7.032612 3.062726 6.099942
v -6.467486 3.062726 5.970956
v -6.215981 3.062726 5.448700
v -6.467486 3.328583 4.926444
v -7.032612 3.328583 4.797458
v -7.485809 3.328583 5.158870
v -7.485809 3.328583 5.738530
v -7.032612 3.328583 6.099942
v -6.467486 3.328583 5.970956
v -6.215981 3.328583 5.448700
v -6.883971 3.062726 5.448700
v -6.883971 3.328583 5.448700
v -6.343034 3.571611 4.381186
v -6.908160 3.571611 4.252199
v -6.908160 3.837467 4.252199
v -6.343034 3.837467 4.381186
v -7.381318 3.571611 4.360194
v -7.834515 3.571611 4.721607
v -7.834515 3.837467 4.721607
v -7.381318 3.837467 4.360194
v -8.045090 3.571611 5.158870
v -8.045090 3.571611 5.738530
v -8.045090 3.837467 5.738530
v -8.045090 3.837467 5.158870
v -7.834515 3.571611 6.175793
v -7.381318 3.571611 6.537205
v -7.381318 3.837467 6.537205
v -7.834515 3.837467 6.175793
v -6.908161 3.571611 6.645201
v -6.343034 3.571611 6.516214
v -6.343034 3.837467 6.516214
v -6.908161 3.837467 6.645201
v -5.963591 3.571611 6.213618
v -5.712086 3.571611 5.691363
v -5.712086 3.837467 5.691363
v -5.963591 3.837467 6.213618
v -5.712086 3.571611 5.206037
v -5.963591 3.571611 4.683781
v -5.963591 3.837467 4.683781
v -5.712086 3.837467 5.206037
v -6.202826 3.062726 3.766897
v -6.767953 3.062726 3.637910
v -6.767953 3.328583 3.637910
v -6.202826 3.328583 3.766897
v -7.774171 3.062726 3.867573
v -8.227368 3.062726 4.228985
v -8.227368 3.328583 4.228985
v -7.774171 3.328583 3.867573
v -8.675176 3.062726 5.158870
v -8.675176 3.062726 5.738530
v -8.675176 3.328583 5.738530
v -8.675176 3.328583 5.158870
v -8.227368 3.062726 6.668415
v -7.774171 3.062726 7.029827
v -7.774171 3.328583 7.029827
v -8.227368 3.328583 6.668415
v -6.767953 3.062726 7.259490
v -6.202826 3.062726 7.130503
v -6.202826 3.328583 7.130503
v -6.767953 3.328583 7.259490
v -5.395902 3.062726 6.487003
v -5.144397 3.062726 5.964747
v -5.144397 3.328583 5.964747
v -5.395902 3.328583 6.487003
v -5.144397 3.062726 4.932653
v -5.395902 3.062726 4.410397
v -5.395902 3.328583 4.410397
v -5.144397 3.328583 4.932653
v -6.027746 2.408571 2.999822
v -6.592873 2.408571 2.870836
v -6.592873 2.674427 2.870836
v -6.027746 2.674427 2.999822
v -8.264734 2.408571 3.252427
v -8.717930 2.408571 3.613839
v -8.717930 2.674427 3.613839
v -8.264734 2.674427 3.252427
v -9.461978 2.408571 5.158870
v -9.461978 2.408571 5.738530
v -9.461978 2.674427 5.738530
v -9.461978 2.674427 5.158870
v -8.717930 2.408571 7.283561
v -8.264734 2.408571 7.644973
v -8.264734 2.674427 7.644973
v -8.717930 2.674427 7.283561
v -6.592873 2.408571 8.026564
v -6.027747 2.408571 7.897578
v -6.027747 2.674427 7.897578
v -6.592873 2.674427 8.026564
v -4.687019 2.408571 6.828383
v -4.435514 2.408571 6.306127
v -4.435514 2.674427 6.306127
v -4.687019 2.674427 6.828383
v -4.435514 2.408571 4.591272
v -4.687019 2.408571 4.069017
v -4.687019 2.674427 4.069017
v -4.435514 2.674427 4.591272
v -6.675424 -0.219279 5.380939
v -6.706570 -0.219279 5.319811
v -6.755082 -0.219279 5.271299
v -6.816210 -0.219279 5.240153
v -6.883971 -0.219279 5.229421
v -6.951732 -0.219279 5.240153
v -7.012860 -0.219279 5.271299
v -7.061371 -0.219279 5.319811
v -7.092517 -0.219279 5.380939
v -7.103250 -0.219279 5.448700
v -7.092517 -0.219279 5.516461
v -7.061371 -0.219279 5.577589
v -7.012860 -0.219279 5.626100
v -6.951732 -0.219279 5.657247
v -6.883971 -0.219279 5.667979
v -6.816210 -0.219279 5.657247
v -6.755082 -0.219279 5.626100
v -6.706570 -0.219279 5.577589
v -6.675424 -0.219279 5.516461
v -6.664692 -0.219279 5.448700
v -6.675424 3.084437 5.380939
v -6.706570 3.084437 5.319811
v -6.755082 3.084437 5.271299
v -6.816210 3.084437 5.240153
v -6.883971 3.084437 5.229421
v -6.951732 3.084437 5.240153
v -7.012860 3.084437 5.271299
v -7.061371 3.084437 5.319811
v -7.092517 3.084437 5.380939
v -7.103250 3.084437 5.448700
v -7.092517 3.084437 5.516461
v -7.061371 3.084437 5.577589
v -7.012860 3.084437 5.626100
v -6.951732 3.084437 5.657247
v -6.883971 3.084437 5.667979
v -6.816210 3.084437 5.657247
v -6.755082 3.084437 5.626100
v -6.706570 3.084437 5.577589
v -6.675424 3.084437 5.516461
v -6.664692 3.084437 5.448700
v -6.883971 3.084437 5.448700
vt 0.597420 0.034089
vt 0.465231 0.003918
vt 0.359224 0.088456
vt 0.359224 0.224044
vt 0.465231 0.308582
vt 0.597420 0.278411
vt 0.656250 0.156250
vt 0.375000 0.312500
vt 0.410714 0.312500
vt 0.446429 0.312500
vt 0.482143 0.312500
vt 0.517857 0.312500
vt 0.553571 0.312500
vt 0.589286 0.312500
vt 0.625000 0.312500
vt 0.375000 0.688440
vt 0.410714 0.688440
vt 0.446429 0.688440
vt 0.482143 0.688440
vt 0.517857 0.688440
vt 0.553571 0.688440
vt 0.589286 0.688440
vt 0.625000 0.688440
vt 0.597420 0.721589
vt 0.465231 0.691418
vt 0.359224 0.775956
vt 0.359224 0.911544
vt 0.465231 0.996082
vt 0.597420 0.965911
vt 0.656250 0.843750
vt 0.500000 0.150000
vt 0.500000 0.837500
vt 0.375000 0.312500
vt 0.410714 0.312500
vt 0.410714 0.688440
vt 0.375000 0.688440
vt 0.410714 0.312500
vt 0.446429 0.312500
vt 0.446429 0.688440
vt 0.410714 0.688440
vt 0.446429 0.312500
vt 0.482143 0.312500
vt 0.482143 0.688440
vt 0.446429 0.688440
vt 0.482143 0.312500
vt 0.517857 0.312500
vt 0.517857 0.688440
vt 0.482143 0.688440
vt 0.517857 0.312500
vt 0.553571 0.312500
vt 0.553571 0.688440
vt 0.517857 0.688440
vt 0.553571 0.312500
vt 0.589286 0.312500
vt 0.589286 0.688440
vt 0.553571 0.688440
vt 0.589286 0.312500
vt 0.625000 0.312500
vt 0.625000 0.688440
vt 0.589286 0.688440
vt 0.375000 0.312500
vt 0.410714 0.312500
vt 0.410714 0.688440
vt 0.375000 0.688440
vt 0.410714 0.312500
vt 0.446429 0.312500
vt 0.446429 0.688440
vt 0.410714 0.688440
vt 0.446429 0.312500
vt 0.482143 0.312500
vt 0.482143 0.688440
vt 0.446429 0.688440
vt 0.482143 0.312500
vt 0.517857 0.312500
vt 0.517857 0.688440
vt 0.482143 0.688440
vt 0.517857 0.312500
vt 0.553571 0.312500
vt 0.553571 0.688440
vt 0.517857 0.688440
vt 0.553571 0.312500
vt 0.589286 0.312500
vt 0.589286 0.688440
vt 0.553571 0.688440
vt 0.589286 0.312500
vt 0.625000 0.312500
vt 0.625000 0.688440
vt 0.589286 0.688440
vt 0.375000 0.312500
vt 0.410714 0.312500
vt 0.410714 0.688440
vt 0.375000 0.688440
vt 0.410714 0.312500
vt 0.446429 0.312500
vt 0.446429 0.688440
vt 0.410714 0.688440
vt 0.446429 0.312500
vt 0.482143 0.312500
vt 0.482143 0.688440
vt 0.446429 0.688440
vt 0.482143 0.312500
vt 0.517857 0.312500
vt 0.517857 0.688440
vt 0.482143 0.688440
vt 0.517857 0.312500
vt 0.553571 0.312500
vt 0.553571 0.688440
vt 0.517857 0.688440
vt 0.553571 0.312500
vt 0.589286 0.312500
vt 0.589286 0.688440
vt 0.553571 0.688440
vt 0.589286 0.312500
vt 0.625000 0.312500
vt 0.625000 0.688440
vt 0.589286 0.688440
vt 0.375000 0.312500
vt 0.387500 0.312500
vt 0.387500 0.688440
vt 0.375000 0.688440
vt 0.400000 0.312500
vt 0.400000 0.688440
vt 0.412500 0.312500
vt 0.412500 0.688440
vt 0.425000 0.312500
vt 0.425000 0.688440
vt 0.437500 0.312500
vt 0.437500 0.688440
vt 0.450000 0.312500
vt 0.450000 0.688440
vt 0.462500 0.312500
vt 0.462500 0.688440
vt 0.475000 0.312500
vt 0.475000 0.688440
vt 0.487500 0.312500
vt 0.487500 0.688440
vt 0.500000 0.312500
vt 0.500000 0.688440
vt 0.512500 0.312500
vt 0.512500 0.688440
vt 0.525000 0.312500
vt 0.525000 0.688440
vt 0.537500 0.312500
vt 0.537500 0.688440
vt 0.550000 0.312500
vt 0.550000 0.688440
vt 0.562500 0.312500
vt 0.562500 0.688440
vt 0.575000 0.312500
vt 0.575000 0.688440
vt 0.587500 0.312500
vt 0.587500 0.688440
vt 0.600000 0.312500
vt 0.600000 0.688440
vt 0.612500 0.312500
vt 0.612500 0.688440
vt 0.625000 0.312500
vt 0.625000 0.688440
vt 0.648603 0.892034
vt 0.626409 0.935591
vt 0.500000 0.837500
vt 0.591841 0.970159
vt 0.548284 0.992353
vt 0.500000 1.000000
vt 0.451716 0.992353
vt 0.408159 0.970159
vt 0.373591 0.935591
vt 0.351397 0.892034
vt 0.343750 0.843750
vt 0.351397 0.795466
vt 0.373591 0.751909
vt 0.408159 0.717341
vt 0.451716 0.695147
vt 0.500000 0.687500
vt 0.548284 0.695147
vt 0.591842 0.717341
vt 0.626409 0.751908
vt 0.648603 0.795466
vt 0.656250 0.843750
vn 0.222521 0.000000 -0.974928
vn 0.222521 0.000000 -0.974928
vn 0.222521 0.000000 -0.974928
vn 0.222521 0.000000 -0.974928
vn -0.623490 0.000000 -0.781831
vn -0.623490 0.000000 -0.781831
vn -0.623490 0.000000 -0.781831
vn -0.623490 0.000000 -0.781831
vn -1.000000 0.000000 0.000000
vn -1.000000 0.000000 0.000000
vn -1.000000 0.000000 0.000000
vn -1.000000 0.000000 0.000000
vn -0.623490 0.000000 0.781832
vn -0.623490 0.000000 0.781832
vn -0.623490 0.000000 0.781832
vn -0.623490 0.000000 0.781832
vn 0.222521 0.000000 0.974928
vn 0.222521 0.000000 0.974928
vn 0.222521 0.000000 0.974928
vn 0.222521 0.000000 0.974928
vn 0.900969 0.000000 0.433883
vn 0.900969 0.000000 0.433883
vn 0.900969 0.000000 0.433883
vn 0.900969 0.000000 0.433883
vn 0.900969 0.000000 -0.433883
vn 0.900969 0.000000 -0.433883
vn 0.900969 0.000000 -0.433883
vn 0.900969 0.000000 -0.433883
vn -0.113385 -0.860443 -0.496772
vn 0.317698 -0.860443 -0.398380
vn 0.000000 -1.000000 0.000000
vn -0.459086 -0.860443 -0.221085
vn -0.459086 -0.860443 0.221084
vn -0.113385 -0.860443 0.496772
vn 0.317698 -0.860443 0.398380
vn 0.509547 -0.860443 0.000000
vn -0.317698 0.860443 0.398380
vn 0.113385 0.860443 0.496772
vn 0.000000 1.000000 0.000000
vn 0.459086 0.860443 0.221084
vn 0.459086 0.860443 -0.221084
vn 0.113385 0.860443 -0.496772
vn -0.317698 0.860443 -0.398380
vn -0.509547 0.860443 -0.000000
vn 0.000000 -1.000000 -0.000000
vn 0.000000 -1.000000 -0.000000
vn -0.974928 0.000000 -0.222521
vn -0.974928 0.000000 -0.222521
vn -0.974928 0.000000 -0.222521
vn -0.974928 0.000000 -0.222521
vn 0.000000 1.000000 -0.000000
vn 0.000000 1.000000 0.000000
vn 0.974928 0.000000 0.222521
vn 0.974928 0.000000 0.222521
vn 0.974928 0.000000 0.222521
vn 0.974928 0.000000 0.222521
vn 0.000000 -1.000000 0.000000
vn 0.000000 -1.000000 0.000000
vn -0.781831 0.000000 0.623490
vn -0.781831 0.000000 0.623490
vn -0.781831 0.000000 0.623490
vn -0.781831 0.000000 0.623490
vn -0.000000 1.000000 -0.000000
vn -0.000000 1.000000 -0.000000
vn 0.781831 0.000000 -0.623490
vn 0.781831 0.000000 -0.623490
vn 0.781831 0.000000 -0.623490
vn 0.781831 0.000000 -0.623490
vn -0.000000 -1.000000 0.000000
vn 0.000000 -1.000000 0.000000
vn -0.000000 0.000000 1.000000
vn -0.000000 0.000000 1.000000
vn -0.000000 0.000000 1.000000
vn -0.000000 0.000000 1.000000
vn -0.000000 1.000000 0.000000
vn 0.000000 1.000000 0.000000
vn 0.000000 0.000000 -1.000000
vn 0.000000 0.000000 -1.000000
vn 0.000000 0.000000 -1.000000
vn 0.000000 0.000000 -1.000000
vn 0.000000 -1.000000 -0.000000
vn 0.000000 -1.000000 -0.000000
vn 0.781831 0.000000 0.623490
vn 0.781831 0.000000 0.623490
vn 0.781832 0.000000 0.623490
vn 0.781831 0.000000 0.623490
vn -0.000000 1.000000 -0.000000
vn -0.000000 1.000000 -0.000000
vn -0.781832 0.000000 -0.623490
vn -0.781832 0.000000 -0.623490
vn -0.781832 0.000000 -0.623490
vn -0.781832 0.000000 -0.623490
vn 0.000000 -1.000000 0.000000
vn -0.000000 -1.000000 0.000000
vn 0.974928 0.000000 -0.222521
vn 0.974928 0.000000 -0.222521
vn 0.974928 0.000000 -0.222521
vn 0.974928 0.000000 -0.222521
vn -0.000000 1.000000 -0.000000
vn -0.000000 1.000000 -0.000000
vn -0.974928 0.000000 0.222521
vn -0.974928 0.000000 0.222521
vn -0.974928 0.000000 0.222521
vn -0.974928 0.000000 0.222521
vn 0.000000 -1.000000 0.000000
vn -0.000000 -1.000000 0.000000
vn 0.433884 0.000000 -0.900969
vn 0.433884 0.000000 -0.900969
vn 0.433884 0.000000 -0.900969
vn 0.433884 0.000000 -0.900969
vn 0.000000 1.000000 -0.000000
vn 0.000000 1.000000 -0.000000
vn -0.433884 0.000000 0.900969
vn -0.433884 0.000000 0.900969
vn -0.433884 0.000000 0.900969
vn -0.433884 0.000000 0.900969
vn -0.000000 -1.000000 -0.000000
vn 0.000000 -1.000000 -0.000000
vn -0.433884 0.000000 -0.900969
vn -0.433884 0.000000 -0.900969
vn -0.433884 0.000000 -0.900969
vn -0.433884 0.000000 -0.900969
vn 0.000000 1.000000 0.000000
vn 0.000000 1.000000 0.000000
vn 0.433884 0.000000 0.900969
vn 0.433884 0.000000 0.900969
vn 0.433884 0.000000 0.900969
vn 0.433884 0.000000 0.900969
vn -0.141183 -0.772949 0.618561
vn -0.141183 -0.772949 0.618561
vn -0.974928 0.000000 -0.222521
vn -0.974928 0.000000 -0.222521
vn 0.141183 0.772949 -0.618561
vn 0.141183 0.772949 -0.618561
vn 0.974928 0.000000 0.222521
vn 0.974928 0.000000 0.222521
vn 0.395585 -0.772949 0.496047
vn 0.395585 -0.772949 0.496047
vn -0.781832 0.000000 0.623490
vn -0.781831 0.000000 0.623490
vn -0.395585 0.772949 -0.496047
vn -0.395585 0.772949 -0.496047
vn 0.781831 0.000000 -0.623490
vn 0.781832 0.000000 -0.623490
vn 0.634468 -0.772949 0.000000
vn 0.634468 -0.772949 0.000000
vn 0.000000 0.000000 1.000000
vn 0.000000 0.000000 1.000000
vn -0.634468 0.772949 0.000000
vn -0.634468 0.772949 0.000000
vn 0.000000 0.000000 -1.000000
vn 0.000000 0.000000 -1.000000
vn 0.395585 -0.772949 -0.496047
vn 0.395585 -0.772949 -0.496047
vn 0.781832 0.000000 0.623490
vn 0.781832 0.000000 0.623490
vn -0.395585 0.772949 0.496047
vn -0.395585 0.772949 0.496047
vn -0.781832 0.000000 -0.623490
vn -0.781832 0.000000 -0.623490
vn -0.141183 -0.772949 -0.618561
vn -0.141183 -0.772949 -0.618561
vn 0.974928 0.000000 -0.222521
vn 0.974928 0.000000 -0.222521
vn 0.141183 0.772949 0.618561
vn 0.141182 0.772949 0.618561
vn -0.974928 0.000000 0.222521
vn -0.974928 0.000000 0.222521
vn -0.571636 -0.772949 -0.275285
vn -0.571636 -0.772949 -0.275285
vn 0.433884 0.000000 -0.900969
vn 0.433884 0.000000 -0.900969
vn 0.571636 0.772949 0.275285
vn 0.571636 0.772949 0.275285
vn -0.433884 0.000000 0.900969
vn -0.433884 0.000000 0.900969
vn -0.571636 -0.772949 0.275285
vn -0.571636 -0.772949 0.275285
vn -0.433884 0.000000 -0.900969
vn -0.433884 0.000000 -0.900969
vn 0.571636 0.772949 -0.275285
vn 0.571636 0.772949 -0.275285
vn 0.433884 0.000000 0.900969
vn 0.433884 0.000000 0.900969
vn -0.142261 -0.768947 0.623283
vn -0.142261 -0.768947 0.623283
vn -0.974928 0.000000 -0.222521
vn -0.974928 0.000000 -0.222521
vn 0.142261 0.768947 -0.623283
vn 0.142261 0.768947 -0.623283
vn 0.974928 0.000000 0.222521
vn 0.974928 0.000000 0.222521
vn 0.398605 -0.768948 0.499834
vn 0.398605 -0.768948 0.499834
vn -0.781831 0.000000 0.623490
vn -0.781831 0.000000 0.623490
vn -0.398605 0.768948 -0.499834
vn -0.398605 0.768947 -0.499834
vn 0.781831 0.000000 -0.623490
vn 0.781831 0.000000 -0.623490
vn 0.639312 -0.768948 0.000000
vn 0.639312 -0.768948 0.000000
vn 0.000000 0.000000 1.000000
vn 0.000000 0.000000 1.000000
vn -0.639312 0.768948 0.000000
vn -0.639312 0.768948 0.000000
vn 0.000000 0.000000 -1.000000
vn 0.000000 0.000000 -1.000000
vn 0.398605 -0.768947 -0.499834
vn 0.398605 -0.768947 -0.499834
vn 0.781832 0.000000 0.623490
vn 0.781832 0.000000 0.623490
vn -0.398605 0.768947 0.499834
vn -0.398605 0.768947 0.499834
vn -0.781831 0.000000 -0.623490
vn -0.781832 0.000000 -0.623490
vn -0.142260 -0.768947 -0.623283
vn -0.142260 -0.768948 -0.623283
vn 0.974928 0.000000 -0.222521
vn 0.974928 0.000000 -0.222521
vn 0.142260 0.768948 0.623283
vn 0.142260 0.768948 0.623283
vn -0.974928 0.000000 0.222521
vn -0.974928 0.000000 0.222521
vn -0.576000 -0.768947 -0.277387
vn -0.576000 -0.768947 -0.277387
vn 0.433884 0.000000 -0.900969
vn 0.433884 0.000000 -0.900969
vn 0.576000 0.768947 0.277387
vn 0.576000 0.768947 0.277387
vn -0.433884 0.000000 0.900969
vn -0.433884 0.000000 0.900969
vn -0.576000 -0.768947 0.277387
vn -0.576000 -0.768947 0.277387
vn -0.433884 0.000000 -0.900969
vn -0.433884 0.000000 -0.900969
vn 0.576000 0.768947 -0.277387
vn 0.576000 0.768947 -0.277387
vn 0.433884 0.000000 0.900969
vn 0.433884 0.000000 0.900969
vn 0.951057 0.000000 -0.309016
vn 0.809017 0.000000 -0.587785
vn 0.809017 0.000000 -0.587785
vn 0.951057 0.000000 -0.309016
vn 0.587785 0.000000 -0.809017
vn 0.587785 0.000000 -0.809017
vn 0.309017 0.000000 -0.951057
vn 0.309017 0.000000 -0.951057
vn -0.000000 0.000000 -1.000000
vn -0.000000 0.000000 -1.000000
vn -0.309017 0.000000 -0.951057
vn -0.309017 0.000000 -0.951057
vn -0.587785 0.000000 -0.809017
vn -0.587785 0.000000 -0.809017
vn -0.809017 0.000000 -0.587785
vn -0.809017 0.000000 -0.587785
vn -0.951057 0.000000 -0.309017
vn -0.951057 0.000000 -0.309017
vn -1.000000 0.000000 0.000000
vn -1.000000 0.000000 0.000000
vn -0.951056 0.000000 0.309017
vn -0.951056 0.000000 0.309017
vn -0.809017 0.000000 0.587785
vn -0.809017 0.000000 0.587785
vn -0.587785 0.000000 0.809017
vn -0.587785 0.000000 0.809017
vn -0.309017 0.000000 0.951057
vn -0.309017 0.000000 0.951057
vn 0.000000 0.000000 1.000000
vn 0.000000 0.000000 1.000000
vn 0.309017 0.000000 0.951056
vn 0.309017 0.000000 0.951056
vn 0.587785 0.000000 0.809017
vn 0.587785 0.000000 0.809017
vn 0.809017 0.000000 0.587785
vn 0.809017 0.000000 0.587785
vn 0.951057 0.000000 0.309017
vn 0.951057 0.000000 0.309017
vn 1.000000 0.000000 0.000001
vn 1.000000 0.000000 0.000001
vn 0.000000 1.000000 0.000000
vn 0.000000 1.000000 0.000004
vn 0.000000 1.000000 0.000000
vn 0.000000 1.000000 0.000002
vn 0.000000 1.000000 -0.000002
vn 0.000000 1.000000 0.000000
vn 0.000000 1.000000 -0.000001
vn 0.000000 1.000000 0.000001
vn 0.000000 1.000000 0.000002
vn 0.000000 1.000000 0.000000
vn 0.000000 1.000000 0.000000
vn 0.000000 1.000000 0.000000
vn 0.000000 1.000000 -0.000004
vn 0.000000 1.000000 -0.000002
vn 0.000000 1.000000 0.000002
vn 0.000000 1.000000 -0.000001
vn 0.000000 1.000000 -0.000001
vn 0.000000 1.000000 0.000002
vn 0.000000 1.000000 0.000002
vn 0.000000 1.000000 0.000000
vn 0.000000 1.000000 0.000000
s off
g polySurface5
f 73/89/1 74/90/2 75/91/3 76/92/4
f 77/93/5 78/94/6 79/95/7 80/96/8
f 81/97/9 82/98/10 83/99/11 84/100/12
f 85/101/13 86/102/14 87/103/15 88/104/16
f 89/105/17 90/106/18 91/107/19 92/108/20
f 93/109/21 94/110/22 95/111/23 96/112/24
f 97/113/25 98/114/26 99/115/27 100/116/28
s 1
f 2/2/29 1/1/30 15/31/31
f 3/3/32 2/2/29 15/31/31
f 4/4/33 3/3/32 15/31/31
f 5/5/34 4/4/33 15/31/31
f 6/6/35 5/5/34 15/31/31
f 7/7/36 6/6/35 15/31/31
f 1/1/30 7/7/36 15/31/31
s 2
f 8/29/37 9/28/38 16/32/39
f 9/28/38 10/27/40 16/32/39
f 10/27/40 11/26/41 16/32/39
f 11/26/41 12/25/42 16/32/39
f 12/25/42 13/24/43 16/32/39
f 13/24/43 14/30/44 16/32/39
f 14/30/44 8/29/37 16/32/39
s 1
f 1/8/30 2/9/29 18/34/45 17/33/46
s 3
f 2/9/47 9/17/48 19/35/49 18/34/50
s 2
f 9/17/38 8/16/37 20/36/51 19/35/52
s 4
f 8/16/53 1/8/54 17/33/55 20/36/56
s 1
f 2/9/29 3/10/32 22/38/57 21/37/58
s 5
f 3/10/59 10/18/60 23/39/61 22/38/62
s 2
f 10/18/40 9/17/38 24/40/63 23/39/64
s 6
f 9/17/65 2/9/66 21/37/67 24/40/68
s 1
f 3/10/32 4/11/33 26/42/69 25/41/70
s 7
f 4/11/71 11/19/72 27/43/73 26/42/74
s 2
f 11/19/41 10/18/40 28/44/75 27/43/76
s 8
f 10/18/77 3/10/78 25/41/79 28/44/80
s 1
f 4/11/33 5/12/34 30/46/81 29/45/82
s 9
f 5/12/83 12/20/84 31/47/85 30/46/86
s 2
f 12/20/42 11/19/41 32/48/87 31/47/88
s 10
f 11/19/89 4/11/90 29/45/91 32/48/92
s 1
f 5/12/34 6/13/35 34/50/93 33/49/94
s 11
f 6/13/95 13/21/96 35/51/97 34/50/98
s 2
f 13/21/43 12/20/42 36/52/99 35/51/100
s 12
f 12/20/101 5/12/102 33/49/103 36/52/104
s 1
f 6/13/35 7/14/36 38/54/105 37/53/106
s 13
f 7/14/107 14/22/108 39/55/109 38/54/110
s 2
f 14/22/44 13/21/43 40/56/111 39/55/112
s 14
f 13/21/113 6/13/114 37/53/115 40/56/116
s 1
f 7/14/36 1/15/30 42/58/117 41/57/118
s 15
f 1/15/119 8/23/120 43/59/121 42/58/122
s 2
f 8/23/37 14/22/44 44/60/123 43/59/124
s 16
f 14/22/125 7/14/126 41/57/127 44/60/128
s 1
f 17/33/46 18/34/45 46/62/129 45/61/130
s 3
f 18/34/50 19/35/49 47/63/131 46/62/132
s 2
f 19/35/52 20/36/51 48/64/133 47/63/134
s 4
f 20/36/56 17/33/55 45/61/135 48/64/136
s 1
f 21/37/58 22/38/57 50/66/137 49/65/138
s 5
f 22/38/62 23/39/61 51/67/139 50/66/140
s 2
f 23/39/64 24/40/63 52/68/141 51/67/142
s 6
f 24/40/68 21/37/67 49/65/143 52/68/144
s 1
f 25/41/70 26/42/69 54/70/145 53/69/146
s 7
f 26/42/74 27/43/73 55/71/147 54/70/148
s 2
f 27/43/76 28/44/75 56/72/149 55/71/150
s 8
f 28/44/80 25/41/79 53/69/151 56/72/152
s 1
f 29/45/82 30/46/81 58/74/153 57/73/154
s 9
f 30/46/86 31/47/85 59/75/155 58/74/156
s 2
f 31/47/88 32/48/87 60/76/157 59/75/158
s 10
f 32/48/92 29/45/91 57/73/159 60/76/160
s 1
f 33/49/94 34/50/93 62/78/161 61/77/162
s 11
f 34/50/98 35/51/97 63/79/163 62/78/164
s 2
f 35/51/100 36/52/99 64/80/165 63/79/166
s 12
f 36/52/104 33/49/103 61/77/167 64/80/168
s 1
f 37/53/106 38/54/105 66/82/169 65/81/170
s 13
f 38/54/110 39/55/109 67/83/171 66/82/172
s 2
f 39/55/112 40/56/111 68/84/173 67/83/174
s 14
f 40/56/116 37/53/115 65/81/175 68/84/176
s 1
f 41/57/118 42/58/117 70/86/177 69/85/178
s 15
f 42/58/122 43/59/121 71/87/179 70/86/180
s 2
f 43/59/124 44/60/123 72/88/181 71/87/182
s 16
f 44/60/128 41/57/127 69/85/183 72/88/184
s 1
f 45/61/130 46/62/129 74/90/185 73/89/186
s 3
f 46/62/132 47/63/131 75/91/187 74/90/188
s 2
f 47/63/134 48/64/133 76/92/189 75/91/190
s 4
f 48/64/136 45/61/135 73/89/191 76/92/192
s 1
f 49/65/138 50/66/137 78/94/193 77/93/194
s 5
f 50/66/140 51/67/139 79/95/195 78/94/196
s 2
f 51/67/142 52/68/141 80/96/197 79/95/198
s 6
f 52/68/144 49/65/143 77/93/199 80/96/200
s 1
f 53/69/146 54/70/145 82/98/201 81/97/202
s 7
f 54/70/148 55/71/147 83/99/203 82/98/204
s 2
f 55/71/150 56/72/149 84/100/205 83/99/206
s 8
f 56/72/152 53/69/151 81/97/207 84/100/208
s 1
f 57/73/154 58/74/153 86/102/209 85/101/210
s 9
f 58/74/156 59/75/155 87/103/211 86/102/212
s 2
f 59/75/158 60/76/157 88/104/213 87/103/214
s 10
f 60/76/160 57/73/159 85/101/215 88/104/216
s 1
f 61/77/162 62/78/161 90/106/217 89/105/218
s 11
f 62/78/164 63/79/163 91/107/219 90/106/220
s 2
f 63/79/166 64/80/165 92/108/221 91/107/222
s 12
f 64/80/168 61/77/167 89/105/223 92/108/224
s 1
f 65/81/170 66/82/169 94/110/225 93/109/226
s 13
f 66/82/172 67/83/171 95/111/227 94/110/228
s 2
f 67/83/174 68/84/173 96/112/229 95/111/230
s 14
f 68/84/176 65/81/175 93/109/231 96/112/232
s 1
f 69/85/178 70/86/177 98/114/233 97/113/234
s 15
f 70/86/180 71/87/179 99/115/235 98/114/236
s 2
f 71/87/182 72/88/181 100/116/237 99/115/238
s 16
f 72/88/184 69/85/183 97/113/239 100/116/240
s 17
f 101/117/241 102/118/242 122/119/243 121/120/244
f 102/118/242 103/121/245 123/122/246 122/119/243
f 103/121/245 104/123/247 124/124/248 123/122/246
f 104/123/247 105/125/249 125/126/250 124/124/248
f 105/125/249 106/127/251 126/128/252 125/126/250
f 106/127/251 107/129/253 127/130/254 126/128/252
f 107/129/253 108/131/255 128/132/256 127/130/254
f 108/131/255 109/133/257 129/134/258 128/132/256
f 109/133/257 110/135/259 130/136/260 129/134/258
f 110/135/259 111/137/261 131/138/262 130/136/260
f 111/137/261 112/139/263 132/140/264 131/138/262
f 112/139/263 113/141/265 133/142/266 132/140/264
f 113/141/265 114/143/267 134/144/268 133/142/266
f 114/143/267 115/145/269 135/146/270 134/144/268
f 115/145/269 116/147/271 136/148/272 135/146/270
f 116/147/271 117/149/273 137/150/274 136/148/272
f 117/149/273 118/151/275 138/152/276 137/150/274
f 118/151/275 119/153/277 139/154/278 138/152/276
f 119/153/277 120/155/279 140/156/280 139/154/278
f 120/155/279 101/157/241 121/158/244 140/156/280
s 18
f 121/159/281 122/160/282 141/161/283
f 122/160/282 123/162/284 141/161/283
f 123/162/284 124/163/285 141/161/283
f 124/163/285 125/164/286 141/161/283
f 125/164/286 126/165/287 141/161/283
f 126/165/287 127/166/288 141/161/283
f 127/166/288 128/167/289 141/161/283
f 128/167/289 129/168/290 141/161/283
f 129/168/290 130/169/291 141/161/283
f 130/169/291 131/170/292 141/161/283
f 131/170/292 132/171/293 141/161/283
f 132/171/293 133/172/294 141/161/283
f 133/172/294 134/173/295 141/161/283
f 134/173/295 135/174/296 141/161/283
f 135/174/296 136/175/297 141/161/283
f 136/175/297 137/176/298 141/161/283
f 137/176/298 138/177/299 141/161/283
f 138/177/299 139/178/300 141/161/283
f 139/178/300 140/179/301 141/161/283
f 140/179/301 121/159/281 141/161/283
